PathFileType	4	(X/Y/Z)	/Users/itak/Documents/Research/Walk-IL/dataset/trc/00448_00167.trc
DataRate	CameraRate	NumFrames	NumMarkers	Units	OrigDataRate	OrigDataStartFrame	OrigNumFrames
100.000000	100.000000	4	53	mm	100.000000	452	517
Frame#	Time	RPSI			LPSI			L3			STRN			T10			C7			CLAV			RBAK			LBAK			LSHO			LUPA			LAEL			LAOL			LWTS			LWPS			LFRA			LIFD			LHPS			LHTS			RSHO			RUPA			RAEL			RAOL			RWTS			RWPS			RFRA			RIFD			RHTS			RHPS			RBHD			LFHD			RFHD			LBHD			LHIP			RHIP			RASI			LASI			LKNE			LTHI			LANK			LTIP			LTOE			LMT1			LMT5			LHEE			RKNE			RTHI			RANK			RTIP			RTOE			RMT1			RMT5			RHEE			
		X1	Y1	Z1	X2	Y2	Z2	X3	Y3	Z3	X4	Y4	Z4	X5	Y5	Z5	X6	Y6	Z6	X7	Y7	Z7	X8	Y8	Z8	X9	Y9	Z9	X10	Y10	Z10	X11	Y11	Z11	X12	Y12	Z12	X13	Y13	Z13	X14	Y14	Z14	X15	Y15	Z15	X16	Y16	Z16	X17	Y17	Z17	X18	Y18	Z18	X19	Y19	Z19	X20	Y20	Z20	X21	Y21	Z21	X22	Y22	Z22	X23	Y23	Z23	X24	Y24	Z24	X25	Y25	Z25	X26	Y26	Z26	X27	Y27	Z27	X28	Y28	Z28	X29	Y29	Z29	X30	Y30	Z30	X31	Y31	Z31	X32	Y32	Z32	X33	Y33	Z33	X34	Y34	Z34	X35	Y35	Z35	X36	Y36	Z36	X37	Y37	Z37	X38	Y38	Z38	X39	Y39	Z39	X40	Y40	Z40	X41	Y41	Z41	X42	Y42	Z42	X43	Y43	Z43	X44	Y44	Z44	X45	Y45	Z45	X46	Y46	Z46	X47	Y47	Z47	X48	Y48	Z48	X49	Y49	Z49	X50	Y50	Z50	X51	Y51	Z51	X52	Y52	Z52	X53	Y53	Z53	

453	4.52	1105.4794921875	943.2003784179688	998.41259765625	1193.261840820312	945.5303344726562	886.8898315429688	1149.297607421875	1044.055297851562	963.0852661132812	1375.2587890625	1245.136352539062	1115.392944335938	1134.886596679688	1168.494384765625	950.8067016601562	1181.449584960938	1437.7685546875	1003.099731445312	1346.024536132812	1358.59375	1091.408813476562	1077.065063476562	1317.256713867188	1043.944213867188	1207.8916015625	1389.967651367188	902.1917114257812	1339.749755859375	1416.337158203125	888.0809326171875	1382.445556640625	1302.780029296875	795.588623046875	1410.552856445312	1089.893310546875	760.9586791992188	1309.06982421875	1083.093139648438	769.93896484375	1445.069580078125	889.3734130859375	812.7774658203125	1429.661865234375	870.7327270507812	742.5294799804688	1428.279052734375	1002.17919921875	752.9481201171875	1463.506103515625	729.4312744140625	832.2826538085938	1444.88623046875	788.764404296875	752.8099365234375	1475.34228515625	808.8558349609375	815.1974487304688	1148.812622070312	1406.290405273438	1174.746704101562	1091.1796875	1344.6064453125	1226.876831054688	1057.723754882812	1057.345336914062	1269.6552734375	1031.032836914062	1044.249633789062	1209.432739257812	1164.548950195312	856.20654296875	1277.516967773438	1079.995727539062	840.1177978515625	1291.992065429688	1055.412719726562	999.47607421875	1278.127075195312	1162.790893554688	695.8273315429688	1280.906982421875	1171.625732421875	754.9884643554688	1293.720581054688	1095.443237304688	751.7954711914062	1296.016235351562	1196.845092773438	1633.094604492188	1111.263549804688	1395.657348632812	1653.790893554688	1059.141235351562	1321.163696289062	1655.0810546875	1165.255981445312	1283.924194335938	1634.716430664062	957.0704345703125	1375.19091796875	851.7906494140625	879.8796997070312	1114.314819335938	847.0948486328125	1179.781982421875	1233.073608398438	892.70458984375	1195.614379882812	1402.289672851562	893.0502319335938	1001.047790527344	1408.980590820312	432.1825256347656	930.558349609375	1427.567993164062	588.1973876953125	922.1099853515625	1325.198852539062	20.91826438903809	843.1077880859375	1396.415405273438	276.8988342285156	899.2962036132812	1451.667846679688	31.20684432983398	1047.3310546875	1374.778564453125	41.27800750732422	1021.415771484375	1446.35009765625	29.91033554077148	933.0440673828125	1250.863159179688	13.60243892669678	847.6079711914062	1176.912841796875	458.3241882324219	1203.632446289062	1156.786865234375	707.7638549804688	1238.423461914062	1113.40673828125	31.40781211853027	1172.415893554688	1160.922485351562	312.1894836425781	1212.928466796875	1322.332275390625	35.09181213378906	1254.906494140625	1287.67822265625	42.71281051635742	1190.280029296875	1210.0380859375	33.36631011962891	1267.198974609375	1085.746948242188	19.49249458312988	1098.605224609375	
454	4.53	1105.559448242188	943.2216796875	998.22802734375	1193.375732421875	945.5659790039062	886.7603149414062	1149.405395507812	1043.963012695312	963.0432739257812	1375.1923828125	1245.194091796875	1115.394409179688	1134.951538085938	1168.448852539062	950.69580078125	1181.368896484375	1437.72265625	1003.053771972656	1345.944458007812	1358.6533203125	1091.398071289062	1077.033813476562	1317.212280273438	1043.797241210938	1207.867919921875	1389.903930664062	902.1453857421875	1339.729125976562	1416.353149414062	888.0357666015625	1382.544555664062	1302.765502929688	795.6234741210938	1410.769409179688	1089.869018554688	761.1416015625	1309.3173828125	1082.973022460938	770.064208984375	1445.456298828125	889.4343872070312	813.1598510742188	1430.109008789062	870.7166748046875	742.9188232421875	1428.63916015625	1002.158874511719	753.2163696289062	1464.040649414062	729.513916015625	832.80712890625	1445.416259765625	788.7684936523438	753.2783813476562	1475.812744140625	808.9381713867188	815.653564453125	1148.685180664062	1406.333740234375	1174.626098632812	1091.102172851562	1344.59619140625	1226.7763671875	1057.97119140625	1057.318359375	1269.612426757812	1031.229248046875	1044.06640625	1209.372924804688	1165.067138671875	856.2340087890625	1277.406127929688	1080.56201171875	840.1089477539062	1292.007202148438	1055.763671875	999.4344482421875	1278.109008789062	1163.584716796875	695.9931030273438	1280.884521484375	1172.305786132812	754.9765014648438	1293.619262695312	1096.15966796875	751.9195556640625	1296.030639648438	1196.595458984375	1633.032348632812	1111.082763671875	1395.456665039062	1653.87548828125	1058.93408203125	1320.967041015625	1655.279907226562	1165.119506835938	1283.794067382812	1634.70751953125	956.8946533203125	1375.353271484375	851.8189086914062	879.8388061523438	1114.464965820312	847.0899658203125	1179.710205078125	1233.177856445312	892.708984375	1195.486083984375	1402.403686523438	893.0757446289062	1001.019104003906	1408.997436523438	432.1728210449219	930.4910888671875	1427.648071289062	588.1966552734375	922.0497436523438	1325.218017578125	20.91674995422363	843.0930786132812	1396.444580078125	276.9203491210938	899.2290649414062	1451.725952148438	31.22892761230469	1047.314331054688	1374.789428710938	41.28750228881836	1021.406188964844	1446.347900390625	29.90730667114258	933.0415649414062	1250.861206054688	13.61140155792236	847.5886840820312	1176.891967773438	458.4363403320312	1203.574584960938	1157.20654296875	707.6984252929688	1238.283081054688	1113.398071289062	31.39322280883789	1172.3994140625	1160.944091796875	312.1902770996094	1212.875244140625	1322.321533203125	35.07549667358398	1254.906127929688	1287.677612304688	42.7049674987793	1190.276611328125	1210.065185546875	33.41627883911133	1267.21337890625	1085.75341796875	19.49258041381836	1098.607788085938	
455	4.54	1105.649780273438	943.2493286132812	998.0223388671875	1193.463623046875	945.5819091796875	886.6603393554688	1149.494262695312	1043.848388671875	963.0177001953125	1375.11572265625	1245.239379882812	1115.391845703125	1135.018920898438	1168.40185546875	950.5863037109375	1181.300415039062	1437.678833007812	1002.991455078125	1345.869750976562	1358.705444335938	1091.383544921875	1076.9931640625	1317.154541015625	1043.695190429688	1207.84716796875	1389.833862304688	902.1041870117188	1339.708129882812	1416.353149414062	887.9879150390625	1382.641235351562	1302.749145507812	795.6553344726562	1411.005981445312	1089.83935546875	761.3094482421875	1309.5654296875	1082.847045898438	770.1713256835938	1445.869873046875	889.4874877929688	813.4938354492188	1430.578369140625	870.7070922851562	743.2615966796875	1429.023681640625	1002.140625	753.4524536132812	1464.599487304688	729.5884399414062	833.2652587890625	1445.97314453125	788.7764282226562	753.6895751953125	1476.302124023438	809.0123291015625	816.0543823242188	1148.56689453125	1406.377563476562	1174.506591796875	1091.051147460938	1344.601440429688	1226.705200195312	1058.21484375	1057.304565429688	1269.578857421875	1031.417358398438	1043.893920898438	1209.32763671875	1165.62255859375	856.3099365234375	1277.357055664062	1081.130859375	840.1077880859375	1292.050537109375	1056.10693359375	999.3969116210938	1278.128784179688	1164.412719726562	696.1538696289062	1280.879760742188	1173.004028320312	754.9888916015625	1293.514404296875	1096.902221679688	752.0404663085938	1296.054443359375	1196.371215820312	1632.972045898438	1110.892944335938	1395.258911132812	1653.95654296875	1058.731811523438	1320.751953125	1655.47119140625	1164.947631835938	1283.639282226562	1634.679565429688	956.7213745117188	1375.512939453125	851.8397827148438	879.8031616210938	1114.600708007812	847.0785522460938	1179.65771484375	1233.26904296875	892.7070922851562	1195.36669921875	1402.52197265625	893.0965576171875	1000.9892578125	1409.0166015625	432.1620178222656	930.432861328125	1427.7177734375	588.1895141601562	921.989990234375	1325.228637695312	20.91548728942871	843.08154296875	1396.476806640625	276.9374694824219	899.1703491210938	1451.774291992188	31.23345565795898	1047.291748046875	1374.80126953125	41.29222106933594	1021.3984375	1446.345336914062	29.90311431884766	933.0381469726562	1250.861572265625	13.62269592285156	847.5720825195312	1176.903198242188	458.5537414550781	1203.553955078125	1157.612915039062	707.626708984375	1238.151245117188	1113.405151367188	31.40430641174316	1172.40771484375	1160.964233398438	312.1823425292969	1212.826171875	1322.316528320312	35.06200790405273	1254.905029296875	1287.67724609375	42.69649124145508	1190.273071289062	1210.091064453125	33.46773910522461	1267.230834960938	1085.758911132812	19.49351692199707	1098.611450195312	
456	4.55	1105.744262695312	943.2744140625	997.8141479492188	1193.531494140625	945.5797729492188	886.5899658203125	1149.574584960938	1043.731811523438	962.9802856445312	1375.033203125	1245.273315429688	1115.384155273438	1135.087280273438	1168.357177734375	950.4747924804688	1181.248046875	1437.642333984375	1002.911987304688	1345.80029296875	1358.746826171875	1091.365966796875	1076.948486328125	1317.089965820312	1043.625732421875	1207.828002929688	1389.757202148438	902.070556640625	1339.686889648438	1416.339111328125	887.9364624023438	1382.734741210938	1302.730102539062	795.6817626953125	1411.268310546875	1089.802368164062	761.462646484375	1309.81103515625	1082.710083007812	770.2652587890625	1446.298583984375	889.5291137695312	813.7788696289062	1431.0634765625	870.7003784179688	743.5602416992188	1429.423583984375	1002.123352050781	753.65771484375	1465.175537109375	729.6536865234375	833.6604614257812	1446.539428710938	788.7836303710938	754.04345703125	1476.802001953125	809.0765991210938	816.4043579101562	1148.463256835938	1406.422607421875	1174.39453125	1091.0234375	1344.61962890625	1226.658203125	1058.445190429688	1057.293212890625	1269.546142578125	1031.593505859375	1043.735107421875	1209.297241210938	1166.218872070312	856.4502563476562	1277.386962890625	1081.6982421875	840.1088256835938	1292.10888671875	1056.44091796875	999.3574829101562	1278.179931640625	1165.274169921875	696.3001098632812	1280.908569335938	1173.727905273438	755.072509765625	1293.448120117188	1097.682250976562	752.169677734375	1296.129272460938	1196.171875	1632.918701171875	1110.691040039062	1395.064697265625	1654.04052734375	1058.540283203125	1320.52392578125	1655.6396484375	1164.745239257812	1283.462158203125	1634.638427734375	956.5380249023438	1375.67333984375	851.8551635742188	879.7734985351562	1114.7197265625	847.0635986328125	1179.615844726562	1233.348388671875	892.6998291015625	1195.257446289062	1402.646606445312	893.1139526367188	1000.9609375	1409.032958984375	432.1511535644531	930.3815307617188	1427.775512695312	588.1784057617188	921.9340209960938	1325.232788085938	20.91423988342285	843.0728149414062	1396.506713867188	276.9500732421875	899.117919921875	1451.808959960938	31.2279224395752	1047.269287109375	1374.813354492188	41.29331588745117	1021.392211914062	1446.342529296875	29.89773941040039	933.0338745117188	1250.8642578125	13.63484668731689	847.5580444335938	1176.9541015625	458.6742248535156	1203.571166992188	1158.007568359375	707.5492553710938	1238.02978515625	1113.426635742188	31.43895530700684	1172.4375	1160.984497070312	312.1722717285156	1212.782958984375	1322.318969726562	35.05787658691406	1254.90087890625	1287.677368164062	42.68749237060547	1190.26953125	1210.114501953125	33.51839447021484	1267.248291015625	1085.763549804688	19.4942626953125	1098.614624023438	
